# xmcd CD database file
#
# Track frame offsets:
#	150
#	20779
#	41848
#	70231
#	96849
#	118166
#
# Disc length: 1722 seconds
#
# Revision: 0
# Processed by: cddbd v1.5.2PL0 Copyright (c) Steve Scherf et al.
# Submitted via: CDex 1.70beta2
#
DISCID=5406b806
DTITLE=DU UY Quintet - DU UY Quintet
DYEAR=2005
DGENRE=Jazz
TTITLE0=More More More
TTITLE1=Los Dos Deuces
TTITLE2=Sleepy
TTITLE3=Texas is Endless
TTITLE4=Marvin
TTITLE5=Ago Went
EXTD=YEAR: 2005
EXTT0=
EXTT1=
EXTT2=
EXTT3=
EXTT4=
EXTT5=
PLAYORDER=
